<?xml version="1.0" encoding="UTF-8" standalone="no"?>
<svg
   xmlns:dc="http://purl.org/dc/elements/1.1/"
   xmlns:cc="http://creativecommons.org/ns#"
   xmlns:rdf="http://www.w3.org/1999/02/22-rdf-syntax-ns#"
   xmlns:svg="http://www.w3.org/2000/svg"
   xmlns="http://www.w3.org/2000/svg"
   xmlns:sodipodi="http://sodipodi.sourceforge.net/DTD/sodipodi-0.dtd"
   xmlns:inkscape="http://www.inkscape.org/namespaces/inkscape"
   width="210mm"
   height="297mm"
   viewBox="0 0 210 297"
   version="1.1"
   id="svg8"
   inkscape:version="1.0.2-2 (e86c870879, 2021-01-15)"
   sodipodi:docname="eye_opened_alt.svg">
  <defs
     id="defs2" />
  <sodipodi:namedview
     id="base"
     pagecolor="#ffffff"
     bordercolor="#666666"
     borderopacity="1.0"
     inkscape:pageopacity="0.0"
     inkscape:pageshadow="2"
     inkscape:zoom="0.24748737"
     inkscape:cx="63.45084"
     inkscape:cy="290.84623"
     inkscape:document-units="mm"
     inkscape:current-layer="layer1"
     inkscape:document-rotation="0"
     showgrid="false"
     inkscape:window-width="1560"
     inkscape:window-height="1198"
     inkscape:window-x="156"
     inkscape:window-y="155"
     inkscape:window-maximized="0" />
  <metadata
     id="metadata5">
    <rdf:RDF>
      <cc:Work
         rdf:about="">
        <dc:format>image/svg+xml</dc:format>
        <dc:type
           rdf:resource="http://purl.org/dc/dcmitype/StillImage" />
        <dc:title></dc:title>
      </cc:Work>
    </rdf:RDF>
  </metadata>
  <g
     inkscape:label="Warstwa 1"
     inkscape:groupmode="layer"
     id="layer1">
    <path
       id="path833"
       style="fill:#000000;stroke:#000000;stroke-width:3.81704"
       d="m 105.32115,84.149702 a 97.328954,81.831838 0 0 0 -95.366899,66.510658 97.328954,81.831838 0 0 0 94.483669,62.19 97.328954,81.831838 0 0 0 95.60783,-66.51066 97.328954,81.831838 0 0 0 -94.48367,-62.189998 97.328954,81.831838 0 0 0 -0.24093,0 z m -0.0313,6.25129 a 87.873374,73.881813 0 0 1 0.21759,0 87.873374,73.881813 0 0 1 85.30482,56.148508 87.873374,73.881813 0 0 1 -86.31957,60.04905 87.873374,73.881813 0 0 1 -85.304827,-56.14851 87.873374,73.881813 0 0 1 86.101987,-60.049048 z" />
    <path
       id="path901"
       style="fill:#000000;stroke:#000000;stroke-width:3.49999"
       d="m 104.91706,123.55348 a 24.946428,24.946428 0 0 0 -24.863597,24.94628 24.946428,24.946428 0 0 0 24.946287,24.9468 24.946428,24.946428 0 0 0 24.94679,-24.9468 24.946428,24.946428 0 0 0 -24.94679,-24.94628 24.946428,24.946428 0 0 0 -0.0827,0 z m 7.4533,3.02359 a 12.284225,12.284225 0 0 1 12.28452,12.28452 12.284225,12.284225 0 0 1 -12.28452,12.28401 12.284225,12.284225 0 0 1 -12.28401,-12.28401 12.284225,12.284225 0 0 1 12.28401,-12.28452 z" />
    <rect
       style="fill:#000000;stroke:#000000;stroke-width:3.49999"
       id="rect908"
       width="5.6696429"
       height="27.970238"
       x="105.32115"
       y="56.179466" />
    <rect
       style="fill:#000000;stroke:#000000;stroke-width:3.49999"
       id="rect908-2"
       width="5.6696429"
       height="27.970238"
       x="166.79034"
       y="-21.192232"
       transform="rotate(30.595475)" />
    <rect
       style="fill:#000000;stroke:#000000;stroke-width:3.49999"
       id="rect908-5"
       width="5.6696429"
       height="27.970238"
       x="13.04543"
       y="84.069542"
       transform="rotate(-27.757754)" />
    <rect
       style="fill:#000000;stroke:#000000;stroke-width:3.49999"
       id="rect908-2-0"
       width="5.6696429"
       height="27.970238"
       x="205.66812"
       y="-61.016293"
       transform="rotate(42.041406)" />
    <rect
       style="fill:#000000;stroke:#000000;stroke-width:3.49999"
       id="rect908-2-0-9"
       width="5.6696429"
       height="27.970238"
       x="55.129669"
       y="74.944801"
       transform="matrix(-0.70949282,0.70471267,0.70471267,0.70949282,0,0)" />
  </g>
</svg>
