<?xml version="1.0" encoding="UTF-8" standalone="no"?>
<svg
   xmlns:dc="http://purl.org/dc/elements/1.1/"
   xmlns:cc="http://creativecommons.org/ns#"
   xmlns:rdf="http://www.w3.org/1999/02/22-rdf-syntax-ns#"
   xmlns:svg="http://www.w3.org/2000/svg"
   xmlns="http://www.w3.org/2000/svg"
   xmlns:sodipodi="http://sodipodi.sourceforge.net/DTD/sodipodi-0.dtd"
   xmlns:inkscape="http://www.inkscape.org/namespaces/inkscape"
   width="210mm"
   height="297mm"
   viewBox="0 0 210 297"
   version="1.1"
   id="svg8"
   inkscape:version="1.0.2-2 (e86c870879, 2021-01-15)"
   sodipodi:docname="weight.svg">
  <defs
     id="defs2">
    <inkscape:path-effect
       effect="fillet_chamfer"
       id="path-effect889"
       is_visible="true"
       lpeversion="1"
       satellites_param="F,0,0,1,0,1.3229167,0,1 @ F,0,0,1,0,1.3229167,0,1 @ F,0,0,1,0,1.3229167,0,1 @ F,0,0,1,0,1.3229167,0,1"
       unit="px"
       method="auto"
       mode="F"
       radius="5"
       chamfer_steps="1"
       flexible="false"
       use_knot_distance="true"
       apply_no_radius="true"
       apply_with_radius="true"
       only_selected="false"
       hide_knots="false" />
    <inkscape:path-effect
       effect="fillet_chamfer"
       id="path-effect887"
       is_visible="true"
       lpeversion="1"
       satellites_param="F,0,0,1,0,1.3229167,0,1 @ F,0,0,1,0,1.3229167,0,1 @ F,0,0,1,0,1.3229167,0,1 @ F,0,0,1,0,1.3229167,0,1"
       unit="px"
       method="auto"
       mode="F"
       radius="5"
       chamfer_steps="1"
       flexible="false"
       use_knot_distance="true"
       apply_no_radius="true"
       apply_with_radius="true"
       only_selected="false"
       hide_knots="false" />
    <inkscape:path-effect
       effect="fillet_chamfer"
       id="path-effect858"
       is_visible="true"
       lpeversion="1"
       satellites_param="F,0,0,1,0,1.3229167,0,1 @ F,0,0,1,0,1.3229167,0,1 @ F,0,0,1,0,1.3229167,0,1 @ F,0,0,1,0,1.3229167,0,1"
       unit="px"
       method="auto"
       mode="F"
       radius="5"
       chamfer_steps="1"
       flexible="false"
       use_knot_distance="true"
       apply_no_radius="true"
       apply_with_radius="true"
       only_selected="false"
       hide_knots="false" />
    <inkscape:path-effect
       effect="fillet_chamfer"
       id="path-effect835"
       is_visible="true"
       lpeversion="1"
       satellites_param="F,0,0,1,0,1.3229167,0,1 @ F,0,0,1,0,1.3229167,0,1 @ F,0,0,1,0,1.3229167,0,1 @ F,0,0,1,0,1.3229167,0,1"
       unit="px"
       method="auto"
       mode="F"
       radius="5"
       chamfer_steps="1"
       flexible="false"
       use_knot_distance="true"
       apply_no_radius="true"
       apply_with_radius="true"
       only_selected="false"
       hide_knots="false" />
  </defs>
  <sodipodi:namedview
     id="base"
     pagecolor="#ffffff"
     bordercolor="#666666"
     borderopacity="1.0"
     inkscape:pageopacity="0.0"
     inkscape:pageshadow="2"
     inkscape:zoom="0.7"
     inkscape:cx="375.25206"
     inkscape:cy="437.9822"
     inkscape:document-units="mm"
     inkscape:current-layer="layer1"
     inkscape:document-rotation="0"
     showgrid="false"
     inkscape:window-width="2560"
     inkscape:window-height="1369"
     inkscape:window-x="-8"
     inkscape:window-y="-8"
     inkscape:window-maximized="1" />
  <metadata
     id="metadata5">
    <rdf:RDF>
      <cc:Work
         rdf:about="">
        <dc:format>image/svg+xml</dc:format>
        <dc:type
           rdf:resource="http://purl.org/dc/dcmitype/StillImage" />
        <dc:title></dc:title>
      </cc:Work>
    </rdf:RDF>
  </metadata>
  <g
     inkscape:label="Warstwa 1"
     inkscape:groupmode="layer"
     id="layer1">
    <path
       style="fill:#000000;stroke:#000000;stroke-width:3.49999"
       id="rect833"
       width="14.363094"
       height="41.199402"
       x="65.12352"
       y="127.9003"
       inkscape:path-effect="#path-effect835"
       d="m 66.446437,127.9003 h 11.717261 a 1.3229167,1.3229167 45 0 1 1.322916,1.32292 l 0,38.55356 a 1.3229167,1.3229167 135 0 1 -1.322916,1.32292 H 66.446437 a 1.3229167,1.3229167 45 0 1 -1.322917,-1.32292 v -38.55356 a 1.3229167,1.3229167 135 0 1 1.322917,-1.32292 z"
       sodipodi:type="rect" />
    <path
       style="fill:#000000;stroke:#000000;stroke-width:2.09288"
       id="rect833-9"
       width="8.5886574"
       height="24.635887"
       x="52.702694"
       y="136.18205"
       inkscape:path-effect="#path-effect858"
       sodipodi:type="rect"
       d="m 54.025611,136.18205 h 5.942824 a 1.3229167,1.3229167 45 0 1 1.322916,1.32292 v 21.99005 a 1.3229167,1.3229167 135 0 1 -1.322916,1.32292 h -5.942824 a 1.3229167,1.3229167 45 0 1 -1.322917,-1.32292 v -21.99005 a 1.3229167,1.3229167 135 0 1 1.322917,-1.32292 z" />
    <path
       style="fill:#000000;stroke:#000000;stroke-width:3.49999"
       id="rect833-5"
       width="14.363094"
       height="41.199402"
       x="-143.44197"
       y="127.9003"
       inkscape:path-effect="#path-effect887"
       sodipodi:type="rect"
       d="m -142.11905,127.9003 h 11.71726 a 1.3229167,1.3229167 45 0 1 1.32291,1.32292 v 38.55356 a 1.3229167,1.3229167 135 0 1 -1.32291,1.32292 h -11.71726 a 1.3229167,1.3229167 45 0 1 -1.32292,-1.32292 v -38.55356 a 1.3229167,1.3229167 135 0 1 1.32292,-1.32292 z"
       transform="scale(-1,1)" />
    <path
       style="fill:#000000;stroke:#000000;stroke-width:2.09288"
       id="rect833-9-9"
       width="8.5886574"
       height="24.635887"
       x="-155.86278"
       y="136.18205"
       inkscape:path-effect="#path-effect889"
       sodipodi:type="rect"
       d="m -154.53986,136.18205 h 5.94282 a 1.3229167,1.3229167 45 0 1 1.32292,1.32292 v 21.99005 a 1.3229167,1.3229167 135 0 1 -1.32292,1.32292 h -5.94282 a 1.3229167,1.3229167 45 0 1 -1.32292,-1.32292 v -21.99005 a 1.3229167,1.3229167 135 0 1 1.32292,-1.32292 z"
       transform="scale(-1,1)" />
    <rect
       style="fill:#000000;stroke:#000000;stroke-width:3.49999"
       id="rect893"
       width="68.413696"
       height="4.5357141"
       x="70.793152"
       y="146.23215" />
  </g>
</svg>
